<svg xmlns="http://www.w3.org/2000/svg" width="73.345" height="22.141" viewBox="0 0 73.345 22.141"><defs><style>.a{fill:#11547e;}</style></defs><path class="a" d="M-441.773,1797.19h-8l-7.154,14.394s-.072-.081-.15-.164c-.907-.974-1.659-1.717-2.554-2.531-.581-.528-1.2-1.055-1.823-1.553-.547-.435-1.275-1-1.852-1.428-.178-.131-.194-.163-.037-.3.975-.835,10.133-8.411,10.133-8.411l-9.684,0s-10.02,8.321-10.193,8.46c0-.325.009-4.451.01-4.927a.119.119,0,0,0-.031-.082,5.382,5.382,0,0,0-1.751-.82,45.35,45.35,0,0,0-5.771-1.643c-1.843-.4-3.739-.649-5.612-.864-.918-.1-3.218-.22-5.227-.216a25.865,25.865,0,0,0-2.96.171,26.026,26.026,0,0,0-4.069.771,12.11,12.11,0,0,0-3.408,1.546,4.877,4.877,0,0,0-1.822,2.151,4.594,4.594,0,0,0-.361,2.156,4.569,4.569,0,0,0,1.156,2.815,7.153,7.153,0,0,0,3.41,1.961,72.4,72.4,0,0,0,9.317,2.129c1.074.193,1.595.455,1.816.864a.961.961,0,0,1-.2,1.144c-1.929,1.734-8.694.785-12.582-.731a24.458,24.458,0,0,1-3.067-1.369v6.278s.245.09.355.133a31.87,31.87,0,0,0,5.515,1.546,35.765,35.765,0,0,0,5.477.568,26.123,26.123,0,0,0,4.767-.3,9.909,9.909,0,0,0,5.543-2.453,5.922,5.922,0,0,0,1.206-1.647,5.513,5.513,0,0,0,.492-3.664c-.462-2.373-2.19-3.958-4.985-5a47.6,47.6,0,0,0-9.256-2.12,2.54,2.54,0,0,1-1.082-.383.878.878,0,0,1-.008-1.443,3.385,3.385,0,0,1,1.394-.517,14.206,14.206,0,0,1,2.063-.2,32.027,32.027,0,0,1,7.9.67,24.828,24.828,0,0,1,2.911.735,17.145,17.145,0,0,1,2.255.854c.379.17.353.2.353.5,0,3.031-.006,14.889-.006,14.889s6.2,0,6.263,0l-.021-5.438c.182-.15,4.626-3.842,4.626-3.842l.219.16a43.47,43.47,0,0,1,4.224,3.495c.821.786,1.632,1.634,2.392,2.478a34.57,34.57,0,0,1,2.288,2.9c.088.122.177.253.177.253l5.557,0,1.691-3.721,12.05,0,1.689,3.72h7.295Zm-8.058,13.635c1.3-2.879,2.6-5.725,3.931-8.668,1.468,3.2,2.555,5.641,3.936,8.668Z" transform="translate(504.235 -1797.103)"/></svg>