<?xml version="1.0" encoding="UTF-8"?>
<svg id="Camada_7" data-name="Camada 7" xmlns="http://www.w3.org/2000/svg" viewBox="0 0 96.94 88.13">
  <defs>
    <style>
      .cls-1 {
        fill: #fff;
      }
    </style>
  </defs>
  <path class="cls-1" d="M67.76,10.65c18.45,10.65,24.77,34.25,14.12,52.7-10.65,18.45-34.25,24.77-52.7,14.12-11.55-6.67-18.84-18.83-19.27-32.16l-.02-1.25.02-1.25C10.6,21.52,28.42,4.81,49.72,5.5c6.35.21,12.54,1.97,18.04,5.15ZM62.77,33.62c-1.37-1.37-3.56-1.51-5.09-.32l-.36.32-12.7,12.7-4.99-4.98-.36-.32c-1.68-1.31-4.11-1-5.41.69-1.08,1.39-1.08,3.34,0,4.73l.32.36,7.72,7.72.36.32c1.39,1.08,3.34,1.08,4.73,0l.36-.32,15.43-15.43.32-.36c1.19-1.54,1.05-3.72-.32-5.09Z"/>
</svg>