<?xml version="1.0" encoding="UTF-8"?>
<svg id="Camada_7" data-name="Camada 7" xmlns="http://www.w3.org/2000/svg" viewBox="0 0 96.94 88.13">
  <defs>
    <style>
      .cls-1 {
        fill: #fff;
      }
    </style>
  </defs>
  <path class="cls-1" d="M67.76,10.65c18.45,10.65,24.77,34.25,14.12,52.7-10.65,18.45-34.25,24.77-52.7,14.12-11.55-6.67-18.84-18.83-19.27-32.16l-.02-1.25.02-1.25C10.6,21.52,28.42,4.81,49.72,5.5c6.35.21,12.54,1.97,18.04,5.15ZM42.72,33.03c-1.83-1.09-4.2-.49-5.29,1.34-.9,1.52-.66,3.46.59,4.7l4.98,4.99-4.98,4.99-.32.36c-1.3,1.69-.99,4.11.69,5.41,1.53,1.19,3.71,1.05,5.08-.32l4.99-4.98,4.99,4.98.36.32c1.69,1.3,4.11.99,5.41-.69,1.19-1.53,1.05-3.71-.32-5.08l-4.98-4.99,4.98-4.99.32-.36c1.3-1.69.99-4.11-.69-5.41-1.53-1.19-3.71-1.05-5.08.32l-4.99,4.98-4.99-4.98-.36-.32-.39-.27Z"/>
</svg>