<?xml version="1.0" encoding="UTF-8"?>
<svg id="Camada_2" data-name="Camada 2" xmlns="http://www.w3.org/2000/svg" viewBox="0 0 92.77 84.73">
  <defs>
    <style>
      .cls-1 {
        fill: none;
        stroke: #e5e9ed;
        stroke-linecap: round;
        stroke-linejoin: round;
        stroke-width: 8.43px;
      }
    </style>
  </defs>
  <g id="Camada_1-2" data-name="Camada 1">
    <g>
      <path class="cls-1" d="M4.22,75.51c1.92,2.73,5.06,4.34,8.39,4.3,3.33.1,6.5-1.44,8.48-4.13,1.97-2.69,5.14-4.23,8.48-4.13,3.34-.04,6.47,1.57,8.39,4.3s5.06,4.34,8.39,4.3c3.33.1,6.5-1.44,8.48-4.13s5.14-4.23,8.48-4.13c3.34-.04,6.47,1.57,8.39,4.3,1.92,2.73,5.06,4.34,8.39,4.3,3.33.1,6.5-1.44,8.48-4.13"/>
      <path class="cls-1" d="M12.74,67.17l-4.09-12.69,75.9.78-4.35,12.61"/>
      <path class="cls-1" d="M42.52,42.17l29.52.3L42.91,4.22l-.39,37.95"/>
      <path class="cls-1" d="M30.08,20.95l-8.65,21"/>
    </g>
  </g>
</svg>